<svg xmlns="http://www.w3.org/2000/svg" viewBox="0 0 512 512" width="512" height="512">
  <defs>
    <linearGradient id="bg" x1="0" y1="0" x2="1" y2="1">
      <stop offset="0%" stop-color="#1a2a6c"/>
      <stop offset="100%" stop-color="#2980b9"/>
    </linearGradient>
  </defs>

  <rect x="20" y="20" width="472" height="472" rx="108" fill="url(#bg)"/>

  <ellipse cx="256" cy="392" rx="188" ry="16" fill="rgba(0,0,0,0.18)"/>

  <!-- Pilier DROIT — vert, ~100% — cx=360, h=230 -->
  <polygon points="316,368 360,390 360,160 316,138" fill="#1e8449"/>
  <polygon points="360,390 404,368 404,138 360,160" fill="#27ae60"/>
  <polygon points="360,160 404,138 360,116 316,138" fill="#58d68d"/>
  <circle cx="360" cy="116" r="9" fill="white" opacity="0.85"/>
  <polygon points="360,104 363,112 372,112 365,118 367,127 360,121 353,127 355,118 348,112 357,112"
    fill="#f7c948" opacity="0.9"/>

  <!-- Pilier CENTRE — coral, ~67% — cx=256, h=155 -->
  <polygon points="212,368 256,390 256,235 212,213" fill="#c0392b"/>
  <polygon points="256,390 300,368 300,213 256,235" fill="#e74c3c"/>
  <polygon points="256,235 300,213 256,191 212,213" fill="#f1948a"/>

  <!-- Pilier GAUCHE — bleu, ~35% — cx=152, h=80 -->
  <polygon points="108,368 152,390 152,310 108,288" fill="#1a6fa8"/>
  <polygon points="152,390 196,368 196,288 152,310" fill="#2980b9"/>
  <polygon points="152,310 196,288 152,266 108,288" fill="#5dade2"/>

  <line x1="196" y1="368" x2="212" y2="368" stroke="rgba(255,255,255,0.12)" stroke-width="1"/>
  <line x1="300" y1="368" x2="316" y2="368" stroke="rgba(255,255,255,0.12)" stroke-width="1"/>
</svg>
