<svg xmlns="http://www.w3.org/2000/svg" viewBox="0 0 512 512" width="512" height="512">
  <defs>
    <linearGradient id="bg4c" x1="0" y1="0" x2="1" y2="1">
      <stop offset="0%" stop-color="#e96c1b"/>
      <stop offset="100%" stop-color="#f7c948"/>
    </linearGradient>
  </defs>

  <rect x="20" y="20" width="472" height="472" rx="108" fill="url(#bg4c)"/>

  <!-- Bloc 3 (haut de pile) — bleu -->
  <polygon points="256,148  336,188  256,228  176,188" fill="#4a90e2"/>
  <polygon points="176,188  176,258  256,298  256,228" fill="#2471c1"/>
  <polygon points="336,188  336,258  256,298  256,228" fill="#1a5fa8"/>

  <!-- Bloc 2 (milieu) — vert -->
  <polygon points="256,228  336,268  256,308  176,268" fill="#2ecc71"/>
  <polygon points="176,268  176,338  256,378  256,308" fill="#1fa85b"/>
  <polygon points="336,268  336,338  256,378  256,308" fill="#178c4a"/>

  <!-- Bloc 1 (bas) — orange foncé -->
  <polygon points="256,308  336,348  256,388  176,348" fill="#e67e22"/>
  <polygon points="176,348  176,400  256,440  256,388" fill="#c9670e"/>
  <polygon points="336,348  336,400  256,440  256,388" fill="#b05a0c"/>

  <!-- Reflets sur arêtes -->
  <line x1="256" y1="148" x2="256" y2="228" stroke="rgba(255,255,255,0.4)" stroke-width="1.5"/>
  <line x1="256" y1="228" x2="256" y2="308" stroke="rgba(255,255,255,0.3)" stroke-width="1.5"/>
  <line x1="256" y1="308" x2="256" y2="388" stroke="rgba(255,255,255,0.2)" stroke-width="1.5"/>
</svg>
