<svg xmlns="http://www.w3.org/2000/svg" viewBox="0 0 512 512" width="512" height="512">
  <defs>
    <linearGradient id="bg4b" x1="0" y1="0" x2="1" y2="1">
      <stop offset="0%" stop-color="#5b86e5"/>
      <stop offset="100%" stop-color="#36d1dc"/>
    </linearGradient>
  </defs>

  <rect x="20" y="20" width="472" height="472" rx="108" fill="url(#bg4b)"/>

  <!-- Fenêtre 3 (fond) — rouge -->
  <rect x="126" y="186" width="260" height="200" rx="16" fill="#e74c3c" opacity="0.55"
    transform="rotate(-6 256 286)"/>
  <!-- Barre titre -->
  <rect x="126" y="186" width="260" height="28" rx="16" fill="rgba(0,0,0,0.15)"
    transform="rotate(-6 256 286)"/>

  <!-- Fenêtre 2 (milieu) — orange -->
  <rect x="126" y="176" width="260" height="200" rx="16" fill="#f39c12" opacity="0.78"
    transform="rotate(-2 256 276)"/>
  <rect x="126" y="176" width="260" height="28" rx="16" fill="rgba(0,0,0,0.12)"
    transform="rotate(-2 256 276)"/>

  <!-- Fenêtre 1 (avant) — blanche/claire -->
  <rect x="126" y="148" width="260" height="200" rx="16" fill="white" opacity="0.96"/>

  <!-- Barre titre avec dots macOS -->
  <rect x="126" y="148" width="260" height="32" rx="16" fill="rgba(91,134,229,0.15)"/>
  <rect x="126" y="164" width="260" height="16" fill="rgba(91,134,229,0.15)"/>
  <circle cx="156" cy="164" r="6" fill="#ff6b6b" opacity="0.85"/>
  <circle cx="176" cy="164" r="6" fill="#ffd93d" opacity="0.85"/>
  <circle cx="196" cy="164" r="6" fill="#6bcb77" opacity="0.85"/>

  <!-- Contenu fenêtre -->
  <rect x="150" y="198" width="140" height="10" rx="5" fill="#5b86e5" opacity="0.7"/>
  <rect x="150" y="218" width="100" height="8" rx="4" fill="#aaa" opacity="0.35"/>

  <!-- Bouton action -->
  <rect x="150" y="244" width="208" height="42" rx="10" fill="#5b86e5" opacity="0.88"/>
  <polygon points="240,265 240,251 254,258" fill="white" opacity="0.95"/>
  <rect x="256" y="254" width="76" height="8" rx="4" fill="rgba(255,255,255,0.6)"/>

  <!-- Tags/labels en bas -->
  <rect x="150" y="298" width="52" height="20" rx="10" fill="#e8f4fd"/>
  <rect x="210" y="298" width="62" height="20" rx="10" fill="#fef9e7"/>
  <rect x="280" y="298" width="46" height="20" rx="10" fill="#eafaf1"/>
</svg>
