<svg xmlns="http://www.w3.org/2000/svg" viewBox="0 0 512 512" width="512" height="512">
  <defs>
    <linearGradient id="bg3" x1="0" y1="0" x2="1" y2="1">
      <stop offset="0%" stop-color="#f7971e"/>
      <stop offset="100%" stop-color="#ffd200"/>
    </linearGradient>
  </defs>

  <!-- Squircle avec marge transparente -->
  <rect x="20" y="20" width="472" height="472" rx="108" fill="url(#bg3)"/>

  <!-- Tuile haut-gauche : bleu -->
  <rect x="72" y="72" width="164" height="164" rx="20" fill="#2980b9" opacity="0.92"/>
  <rect x="100" y="176" width="28" height="38" rx="5" fill="rgba(255,255,255,0.5)"/>
  <rect x="136" y="156" width="28" height="58" rx="5" fill="rgba(255,255,255,0.65)"/>
  <rect x="172" y="138" width="28" height="76" rx="5" fill="rgba(255,255,255,0.85)"/>

  <!-- Tuile haut-droite : rouge -->
  <rect x="276" y="72" width="164" height="164" rx="20" fill="#e74c3c" opacity="0.92"/>
  <circle cx="358" cy="154" r="44" fill="none" stroke="rgba(255,255,255,0.2)" stroke-width="13"/>
  <circle cx="358" cy="154" r="44" fill="none" stroke="white" stroke-width="13"
    stroke-dasharray="165 277" stroke-dashoffset="69" stroke-linecap="round"
    transform="rotate(-90 358 154)" opacity="0.85"/>
  <text x="358" y="160" text-anchor="middle" font-size="24" font-weight="bold"
    fill="white" font-family="system-ui, -apple-system" opacity="0.9">60%</text>

  <!-- Tuile bas-gauche : violet -->
  <rect x="72" y="276" width="164" height="164" rx="20" fill="#8e44ad" opacity="0.92"/>
  <polyline points="100,322 108,332 122,316" stroke="white" stroke-width="3.5" fill="none" stroke-linecap="round" stroke-linejoin="round"/>
  <rect x="132" y="320" width="82" height="9" rx="4.5" fill="rgba(255,255,255,0.7)"/>
  <polyline points="100,352 108,362 122,346" stroke="white" stroke-width="3.5" fill="none" stroke-linecap="round" stroke-linejoin="round"/>
  <rect x="132" y="350" width="60" height="9" rx="4.5" fill="rgba(255,255,255,0.5)"/>
  <circle cx="108" cy="385" r="6" fill="none" stroke="rgba(255,255,255,0.4)" stroke-width="2.5"/>
  <rect x="124" y="380" width="74" height="9" rx="4.5" fill="rgba(255,255,255,0.25)"/>
  <circle cx="108" cy="412" r="6" fill="none" stroke="rgba(255,255,255,0.3)" stroke-width="2.5"/>
  <rect x="124" y="407" width="52" height="9" rx="4.5" fill="rgba(255,255,255,0.15)"/>

  <!-- Tuile bas-droite : vert — nouveau projet -->
  <rect x="276" y="276" width="164" height="164" rx="20" fill="#27ae60" opacity="0.92"/>
  <rect x="350" y="318" width="16" height="76" rx="8" fill="white" opacity="0.9"/>
  <rect x="318" y="350" width="80" height="16" rx="8" fill="white" opacity="0.9"/>
</svg>
